Coordinates
version=1
nRows=17
nColumns=36
inDegrees=yes

Units are S.I. units (second, meters, Newtons, ...)
If the header above contains a line with 'inDegrees', this indicates whether rotational values are in degrees (yes) or radians (no).

endheader
time	pelvis_tilt	pelvis_list	pelvis_rotation	pelvis_tx	pelvis_ty	pelvis_tz	hip_flexion_r	hip_adduction_r	hip_rotation_r	knee_angle_r	knee_angle_r_beta	ankle_angle_r	subtalar_angle_r	mtp_angle_r	hip_flexion_l	hip_adduction_l	hip_rotation_l	knee_angle_l	knee_angle_l_beta	ankle_angle_l	subtalar_angle_l	mtp_angle_l	lumbar_extension	lumbar_bending	lumbar_rotation	arm_flex_r	arm_add_r	arm_rot_r	elbow_flex_r	pro_sup_r	arm_flex_l	arm_add_l	arm_rot_l	elbow_flex_l	pro_sup_l
      0.00000000	      4.23105766	      0.39795251	      4.58788205	      0.70056442	      1.02086934	      0.14194240	     -0.43017144	      6.72621120	      5.61458692	     12.00601411	      0.20954448	     10.48011625	     -4.66681601	     -6.15220227	     31.52679199	     -0.43838894	      5.67641202	     19.08511254	      0.33309805	      4.59930061	    -10.67377493	     -6.15220227	    -15.40063089	      2.14016606	     -2.28685576	     35.43976459	      4.34192246	     60.05494694	    120.24389807	     85.93446046	     45.79758073	      4.05708098	     62.75416905	    123.96388015	     89.65572912
      0.01666670	      4.08354180	     -1.37985477	      2.67628015	      0.69803336	      1.01276453	      0.14216183	      0.37825915	      9.48551894	     10.86390393	     12.68726543	      0.22143455	      7.26264874	    -10.88487843	     -6.26108208	     32.31279965	     -3.37914732	      6.41952152	     15.80553047	      0.27585855	      9.57533766	     -4.69069790	     -6.26108208	    -16.24262697	      4.46293640	      0.69963881	     39.01056614	      1.80191588	     67.50235625	    125.04641003	     99.00390823	     46.61969176	      4.21302240	     60.19432058	    128.48803679	    107.75216614
      0.03333330	      3.45518866	     -0.15040289	      0.72146255	      0.69360328	      1.00906049	      0.14463127	      2.40403816	      8.28351087	      9.23239510	     15.13016002	      0.26407111	      7.95518962	     -8.82256548	     -6.48790647	     33.42931514	     -3.92972213	      3.25070605	     14.70520753	      0.25665429	     10.04967810	     -1.76280183	     -6.48790647	    -16.35739539	      2.61057798	      2.58274731	     38.08633895	      3.38525691	     66.65518951	    126.00826337	    104.53282393	     47.78235432	      3.30458416	     60.81264390	    128.72410493	    111.30865184
      0.05000000	      2.54653937	      1.26805033	     -0.12339957	      0.69436232	      1.00523296	      0.14660983	      4.93244164	      6.82620658	      7.29073481	     17.66432259	      0.30830059	     10.79425319	     -5.50704361	     -6.52037767	     35.50433618	     -3.68343538	      1.22265634	     17.12410744	      0.29887206	     11.13704644	      0.10309007	     -6.52037767	    -15.46033376	      0.92390599	      2.98109496	     37.49905950	      4.47889373	     67.14161322	    125.04156109	    105.25168272	     48.39164472	      2.73077628	     61.23836600	    128.60593312	    111.37473587
      0.06666670	      1.86572909	      2.30930589	     -0.51440631	      0.70111048	      1.00204346	      0.15046970	      7.07809439	      5.86654998	      5.77923268	     20.38931546	      0.35586069	     13.25427215	     -2.79176074	     -6.54967618	     37.60285720	     -3.47993569	     -0.54210753	     20.03811326	      0.34973105	     12.02913016	      1.79785532	     -6.54967618	    -15.16146744	     -0.38731801	      3.29013575	     36.84876843	      5.31554177	     67.66302183	    124.57608371	    105.94920553	     48.97006846	      2.66618541	     61.50115826	    128.32023387	    111.31564946
      0.08333330	      0.99240151	      2.83621718	     -0.28322727	      0.69137696	      0.99725611	      0.15002673	     10.13325330	      5.38814831	      4.49492303	     24.05231426	      0.41979208	     15.13820710	     -0.95961720	     -6.57672489	     40.47629839	     -3.37412419	     -1.45668129	     23.12505592	      0.40360837	     12.24135003	      3.48441164	     -6.57672489	    -15.33151550	     -0.84289895	      3.08145117	     37.20624526	      5.71119722	     67.98734435	    123.87544852	    106.54503951	     50.27254776	      2.67626423	     62.08635128	    128.06106583	    111.16314930
      0.10000000	      0.35610948	      3.03533045	      0.04901173	      0.68785580	      0.99292351	      0.14740436	     13.01798968	      5.17160261	      3.42370618	     27.90088953	      0.48696239	     17.00192492	      0.75302304	     -6.59790705	     42.87170100	     -3.27403028	     -1.79446051	     25.19730955	      0.43977601	     11.63823833	      4.42760790	     -6.59790705	    -15.85010504	     -0.68517448	      2.83593550	     38.11484954	      5.55549905	     68.48113656	    123.47762266	    106.85644766	     51.52582637	      2.64642953	     62.52191058	    127.50931265	    110.96324036
      0.11666670	     -0.05726926	      3.20372937	      0.55851337	      0.69350642	      0.98846081	      0.15006946	     15.09551842	      4.96632369	      2.43580686	     31.16133909	      0.54386797	     19.20472992	      2.37074189	     -6.62194566	     44.52408839	     -3.05815353	     -1.86496192	     26.71855486	      0.46632675	     10.68037264	      4.55299449	     -6.62194566	    -16.08729744	     -0.59314214	      2.43172293	     38.10003713	      5.76761787	     68.67323068	    122.90084259	    107.01068277	     52.21260646	      2.48476933	     62.69902573	    127.02008192	    110.61004583
      0.13333330	     -0.41624037	      3.44796340	      1.07331773	      0.69424265	      0.98762980	      0.15005953	     16.66827332	      4.63792713	      1.75569364	     33.63397495	      0.58702360	     20.97772132	      3.46738562	     -6.75949077	     45.79091835	     -2.69669892	     -1.99058978	     27.90612729	      0.48705380	      9.59195306	      4.59528273	     -6.75949077	    -16.68933899	     -0.41706806	      2.03842679	     38.51254605	      5.67347840	     69.13735943	    122.24714444	    106.62098866	     52.43272241	      1.88703439	     63.22809631	    126.86752680	    109.84196615
      0.15000000	     -0.72527932	      3.50654206	      1.36455270	      0.68864553	      0.98439004	      0.15250993	     17.98444310	      4.49748886	      1.13928269	     35.47282626	      0.61911761	     22.11498179	      4.75625077	     -6.82678772	     46.97623805	     -2.55127919	     -1.98885538	     28.42687678	      0.49614260	      8.51757953	      4.71875027	     -6.82678772	    -17.33621725	     -0.33450100	      1.88831180	     39.21771059	      5.54426350	     69.39980262	    121.57083180	    105.72029279	     52.93983393	      1.58229133	     63.84045787	    126.83488353	    109.11408570
      0.16666670	     -1.28234212	      3.34554703	      1.61919704	      0.68409811	      0.97975130	      0.14965522	     19.65704201	      4.49611744	      0.53031050	     37.26003020	      0.65031021	     22.57857429	      5.46708550	     -6.93129532	     48.41045824	     -2.41996129	     -1.74537696	     28.53666662	      0.49805879	      7.99978773	      5.28135084	     -6.93129532	    -18.07178393	      0.32650062	      1.83234030	     39.84200265	      5.38410519	     69.75712420	    121.02027826	    106.49414640	     52.94483554	      1.30763979	     64.30247628	    126.96813958	    110.29921605
      0.18333330	     -2.23386493	      3.17648161	      1.76977678	      0.68442456	      0.96914418	      0.14971425	     21.87325720	      4.41332797	     -0.20731082	     39.26045213	      0.68522416	     23.35513943	      6.74320431	     -6.97755678	     50.43981265	     -2.35033016	     -1.17595717	     28.84821571	      0.50349635	      7.94236371	      5.70241406	     -6.97755678	    -18.17897681	      0.89273763	      1.71858129	     40.59163189	      5.94194805	     70.34095326	    120.97294003	    105.64202613	     53.59230368	      1.39014310	     64.90857733	    127.41737963	    108.87752144
      0.20000000	     -2.97827638	      2.79074236	      1.95795834	      0.67522501	      0.96200736	      0.15503966	     24.20230154	      4.63146411	     -1.09857877	     41.51960828	      0.72465387	     23.98334721	      7.67088241	     -6.98756170	     52.46127512	     -2.57287355	     -0.40346318	     29.44828794	      0.51396958	      7.88650506	      6.02577851	     -6.98756170	    -18.70142876	      1.47751993	      2.02143562	     42.42846209	      5.64460445	     70.55354109	    121.12353348	    105.84253130	     54.95066095	      1.36761728	     65.10819575	    127.46338747	    109.00979926
      0.21666670	     -3.71446275	      2.46828450	      2.05371363	      0.66994458	      0.96055204	      0.15749092	     26.33513057	      4.83614542	     -1.79891132	     43.46371802	      0.75858498	     24.51344522	      8.38868294	     -6.99962409	     54.21033234	     -2.87400976	      0.01977209	     29.84565147	      0.52090489	      7.49734492	      6.27598020	     -6.99962409	    -19.17456802	      1.84815964	      2.26129523	     43.60154177	      5.44972387	     70.72532705	    120.68035344	    106.01476476	     55.96085975	      0.94826936	     65.47952687	    127.32541155	    109.11902395
      0.23333330	     -4.65819953	      2.03398762	      2.09198771	      0.66589991	      0.95316496	      0.15992507	     28.78173615	      5.09268980	     -2.55084589	     45.46835097	      0.79357243	     25.02910057	      9.12810221	     -7.07833664	     56.24350820	     -3.32204492	      0.45857531	     30.19742802	      0.52704454	      7.02158217	      6.50530481	     -7.07833664	    -19.41279257	      2.40869080	      2.68465813	     44.59542781	      5.49180046	     70.31995836	    119.85165667	    105.99539735	     56.56158156	      0.89933662	     65.66205439	    127.85867284	    109.16607548
      0.25000000	     -5.19759831	      1.69830246	      2.01458537	      0.66019925	      0.95215271	      0.15684987	     30.61066657	      5.28735339	     -3.04623294	     47.23017294	      0.82432202	     25.38936807	      9.50022324	     -7.08261991	     57.64316740	     -3.71370481	      0.57807369	     30.41964686	      0.53092300	      6.46134617	      6.88551795	     -7.08261991	    -20.27282863	      2.90000615	      2.98633386	     46.01451095	      5.33217068	     70.64729791	    119.96184510	    106.05884576	     57.58330118	      0.76146593	     65.71463331	    127.60751919	    109.18662469
      0.26666670	     -6.47837587	      1.38953627	      1.73187995	      0.65608266	      0.94430937	      0.15388257	     33.35517654	      5.33294809	     -3.55120959	     49.28542234	      0.86019289	     26.04626272	     10.42363430	     -7.17731087	     59.95437976	     -4.09816458	      0.85567059	     30.95453654	      0.54025858	      6.12776954	      6.99106870	     -7.17731087	    -20.28770434	      3.43748604	      3.33289166	     47.38705154	      4.77378225	     71.43281108	    120.07329126	    106.00337205	     57.94876097	      0.77454534	     66.14655393	    127.25537620	    109.34227556
